<svg width="65" height="64" viewBox="0 0 65 64" fill="none" xmlns="http://www.w3.org/2000/svg">
<path d="M58.5 24.5H52V24C52 23.6022 51.842 23.2207 51.5607 22.9393C51.2794 22.658 50.8978 22.5 50.5 22.5H34.5C34.1022 22.5 33.7206 22.658 33.4393 22.9393C33.158 23.2207 33 23.6022 33 24V24.5H16V13C16 12.0717 16.3687 11.1815 17.0251 10.5251C17.6815 9.86875 18.5717 9.50001 19.5 9.50001C20.318 9.4985 21.1124 9.77428 21.7535 10.2824C22.3946 10.7904 22.8446 11.5008 23.03 12.2975C23.0663 12.4932 23.1412 12.6797 23.2503 12.8462C23.3594 13.0126 23.5006 13.1557 23.6655 13.2671C23.8305 13.3785 24.0159 13.4559 24.2111 13.4949C24.4063 13.5338 24.6073 13.5336 24.8024 13.4941C24.9974 13.4546 25.1827 13.3767 25.3474 13.2649C25.5121 13.1531 25.6528 13.0096 25.7615 12.8429C25.8702 12.6762 25.9446 12.4894 25.9804 12.2937C26.0162 12.0979 26.0126 11.8969 25.97 11.7025C25.6535 10.224 24.8374 8.89955 23.6591 7.95205C22.4807 7.00455 21.012 6.49178 19.5 6.50001C17.7761 6.50001 16.1228 7.18483 14.9038 8.40381C13.6848 9.6228 13 11.2761 13 13V24.5H6.5C5.57174 24.5 4.6815 24.8688 4.02513 25.5251C3.36875 26.1815 3 27.0717 3 28V36C3.00397 39.5792 4.42756 43.0107 6.95844 45.5416C9.48932 48.0724 12.9208 49.496 16.5 49.5H17V54C17 54.3978 17.158 54.7794 17.4393 55.0607C17.7206 55.342 18.1022 55.5 18.5 55.5C18.8978 55.5 19.2794 55.342 19.5607 55.0607C19.842 54.7794 20 54.3978 20 54V49.5H45V54C45 54.3978 45.158 54.7794 45.4393 55.0607C45.7206 55.342 46.1022 55.5 46.5 55.5C46.8978 55.5 47.2794 55.342 47.5607 55.0607C47.842 54.7794 48 54.3978 48 54V49.5H48.5C52.0792 49.496 55.5107 48.0724 58.0416 45.5416C60.5724 43.0107 61.996 39.5792 62 36V28C62 27.0717 61.6312 26.1815 60.9749 25.5251C60.3185 24.8688 59.4283 24.5 58.5 24.5ZM36 25.5H49V34.5H36V25.5ZM59 36C59 38.7848 57.8938 41.4555 55.9246 43.4246C53.9555 45.3938 51.2848 46.5 48.5 46.5H16.5C13.7152 46.5 11.0445 45.3938 9.07538 43.4246C7.10625 41.4555 6 38.7848 6 36V28C6 27.8674 6.05268 27.7402 6.14645 27.6465C6.24021 27.5527 6.36739 27.5 6.5 27.5H33V36C33 36.3978 33.158 36.7794 33.4393 37.0607C33.7206 37.342 34.1022 37.5 34.5 37.5H50.5C50.8978 37.5 51.2794 37.342 51.5607 37.0607C51.842 36.7794 52 36.3978 52 36V27.5H58.5C58.6326 27.5 58.7598 27.5527 58.8536 27.6465C58.9473 27.7402 59 27.8674 59 28V36Z" fill="#000"/>
</svg>
